<svg width="110" height="28" viewBox="0 0 110 28" fill="none" xmlns="http://www.w3.org/2000/svg">
<path d="M106.54 6.91825C91.4373 17.3119 73.1537 22.9393 54.3424 22.9838C35.5312 23.0283 17.1708 17.4876 1.92518 7.16573" stroke="#0C8A53" stroke-width="2.22968" stroke-miterlimit="10" stroke-linecap="round" stroke-dasharray="0.72 7.14"/>
<path d="M98.3279 6.67101L102.997 14.0854C103.083 14.2193 103.204 14.3302 103.35 14.4069C103.495 14.4837 103.66 14.5236 103.827 14.5227C103.994 14.5217 104.157 14.4801 104.301 14.4018C104.445 14.3234 104.564 14.2113 104.647 14.0764L109.191 6.62868C109.274 6.4932 109.316 6.33981 109.315 6.18391C109.313 6.028 109.268 5.87506 109.183 5.74038C109.098 5.60571 108.977 5.49405 108.831 5.41658C108.685 5.33912 108.521 5.29859 108.353 5.29903L99.1441 5.33253C98.9763 5.33293 98.8117 5.37454 98.667 5.45317C98.5222 5.53179 98.4024 5.64467 98.3197 5.78039C98.2369 5.91612 98.1941 6.0699 98.1955 6.22626C98.197 6.38261 98.2426 6.53603 98.3279 6.67101Z" fill="url(#paint0_linear_1778_51809)"/>
<defs>
<linearGradient id="paint0_linear_1778_51809" x1="103.808" y1="5.09468" x2="103.387" y2="14.5043" gradientUnits="userSpaceOnUse">
<stop stop-color="#0B8650"/>
<stop offset="1" stop-color="#0BB165"/>
</linearGradient>
</defs>
</svg>
