<svg width="64" height="64" viewBox="0 0 64 64" fill="none" xmlns="http://www.w3.org/2000/svg">
<rect width="64" height="64" rx="30" fill="#F85664"/>
<rect x="12.7998" y="18.1328" width="38.4" height="27.7333" rx="3" fill="white"/>
<g clip-path="url(#clip0_1778_51714)">
<path d="M26.1335 31.4668C25.5032 31.4668 24.879 31.3427 24.2966 31.1014C23.7143 30.8602 23.1851 30.5067 22.7394 30.0609C22.2937 29.6152 21.9401 29.0861 21.6989 28.5037C21.4577 27.9213 21.3335 27.2972 21.3335 26.6668C21.3335 26.0365 21.4577 25.4123 21.6989 24.8299C21.9401 24.2476 22.2937 23.7184 22.7394 23.2727C23.1851 22.827 23.7143 22.4734 24.2966 22.2322C24.879 21.991 25.5032 21.8668 26.1335 21.8668C27.4066 21.8668 28.6275 22.3725 29.5276 23.2727C30.4278 24.1729 30.9335 25.3938 30.9335 26.6668C30.9335 27.9399 30.4278 29.1608 29.5276 30.0609C28.6275 30.9611 27.4066 31.4668 26.1335 31.4668ZM26.6669 42.1335C25.3938 42.1335 24.1729 41.6278 23.2727 40.7276C22.3726 39.8274 21.8669 38.6065 21.8669 37.3335C21.8669 36.0604 22.3726 34.8396 23.2727 33.9394C24.1729 33.0392 25.3938 32.5335 26.6669 32.5335C27.9399 32.5335 29.1608 33.0392 30.061 33.9394C30.9611 34.8396 31.4669 36.0604 31.4669 37.3335C31.4669 38.6065 30.9611 39.8274 30.061 40.7276C29.1608 41.6278 27.9399 42.1335 26.6669 42.1335ZM37.3335 31.4668C36.7032 31.4668 36.079 31.3427 35.4966 31.1014C34.9143 30.8602 34.3851 30.5067 33.9394 30.0609C33.4937 29.6152 33.1401 29.0861 32.8989 28.5037C32.6577 27.9213 32.5335 27.2972 32.5335 26.6668C32.5335 26.0365 32.6577 25.4123 32.8989 24.8299C33.1401 24.2476 33.4937 23.7184 33.9394 23.2727C34.3851 22.827 34.9143 22.4734 35.4966 22.2322C36.079 21.991 36.7032 21.8668 37.3335 21.8668C38.6066 21.8668 39.8275 22.3725 40.7276 23.2727C41.6278 24.1729 42.1335 25.3938 42.1335 26.6668C42.1335 27.9399 41.6278 29.1608 40.7276 30.0609C39.8275 30.9611 38.6066 31.4668 37.3335 31.4668ZM37.3335 42.1335C36.0605 42.1335 34.8396 41.6278 33.9394 40.7276C33.0392 39.8274 32.5335 38.6065 32.5335 37.3335C32.5335 36.0604 33.0392 34.8396 33.9394 33.9394C34.8396 33.0392 36.0605 32.5335 37.3335 32.5335C38.6066 32.5335 39.8275 33.0392 40.7276 33.9394C41.6278 34.8396 42.1335 36.0604 42.1335 37.3335C42.1335 38.6065 41.6278 39.8274 40.7276 40.7276C39.8275 41.6278 38.6066 42.1335 37.3335 42.1335ZM26.1335 29.3335C26.8408 29.3335 27.519 29.0525 28.0191 28.5524C28.5192 28.0523 28.8002 27.3741 28.8002 26.6668C28.8002 25.9596 28.5192 25.2813 28.0191 24.7812C27.519 24.2811 26.8408 24.0002 26.1335 24.0002C25.4263 24.0002 24.748 24.2811 24.2479 24.7812C23.7478 25.2813 23.4669 25.9596 23.4669 26.6668C23.4669 27.3741 23.7478 28.0523 24.2479 28.5524C24.748 29.0525 25.4263 29.3335 26.1335 29.3335ZM26.6669 40.0002C27.3741 40.0002 28.0524 39.7192 28.5525 39.2191C29.0526 38.719 29.3335 38.0407 29.3335 37.3335C29.3335 36.6262 29.0526 35.948 28.5525 35.4479C28.0524 34.9478 27.3741 34.6668 26.6669 34.6668C25.9596 34.6668 25.2813 34.9478 24.7812 35.4479C24.2811 35.948 24.0002 36.6262 24.0002 37.3335C24.0002 38.0407 24.2811 38.719 24.7812 39.2191C25.2813 39.7192 25.9596 40.0002 26.6669 40.0002ZM37.3335 29.3335C38.0408 29.3335 38.719 29.0525 39.2191 28.5524C39.7192 28.0523 40.0002 27.3741 40.0002 26.6668C40.0002 25.9596 39.7192 25.2813 39.2191 24.7812C38.719 24.2811 38.0408 24.0002 37.3335 24.0002C36.6263 24.0002 35.948 24.2811 35.4479 24.7812C34.9478 25.2813 34.6669 25.9596 34.6669 26.6668C34.6669 27.3741 34.9478 28.0523 35.4479 28.5524C35.948 29.0525 36.6263 29.3335 37.3335 29.3335ZM37.3335 40.0002C38.0408 40.0002 38.719 39.7192 39.2191 39.2191C39.7192 38.719 40.0002 38.0407 40.0002 37.3335C40.0002 36.6262 39.7192 35.948 39.2191 35.4479C38.719 34.9478 38.0408 34.6668 37.3335 34.6668C36.6263 34.6668 35.948 34.9478 35.4479 35.4479C34.9478 35.948 34.6669 36.6262 34.6669 37.3335C34.6669 38.0407 34.9478 38.719 35.4479 39.2191C35.948 39.7192 36.6263 40.0002 37.3335 40.0002Z" fill="#F85664"/>
</g>
<defs>
<clipPath id="clip0_1778_51714">
<rect width="25.6" height="25.6" fill="white" transform="translate(19.2002 19.2002)"/>
</clipPath>
</defs>
</svg>
