<svg width="64" height="64" viewBox="0 0 64 64" fill="none" xmlns="http://www.w3.org/2000/svg">
<rect width="64" height="64" rx="30" fill="#f49820"/>
<rect x="12.7998" y="18.1328" width="38.4" height="27.7333" rx="3" fill="white"/>
<g clip-path="url(#clip0_1778_51697)">
<path d="M35.2002 24.5336H37.3335C37.8993 24.5336 38.4419 24.7583 38.842 25.1584C39.2421 25.5585 39.4669 26.1011 39.4669 26.6669V35.3816C40.1789 35.6332 40.779 36.1284 41.1611 36.7797C41.5433 37.4311 41.6828 38.1965 41.5552 38.9408C41.4275 39.6851 41.0409 40.3603 40.4635 40.847C39.8862 41.3338 39.1553 41.6007 38.4002 41.6007C37.645 41.6007 36.9142 41.3338 36.3369 40.847C35.7595 40.3603 35.3729 39.6851 35.2452 38.9408C35.1175 38.1965 35.2571 37.4311 35.6393 36.7797C36.0214 36.1284 36.6215 35.6332 37.3335 35.3816V26.6669H35.2002V29.8669L30.4002 25.6002L35.2002 21.3336V24.5336ZM24.5335 28.6189C23.8215 28.3673 23.2214 27.872 22.8393 27.2207C22.4571 26.5694 22.3175 25.8039 22.4452 25.0596C22.5729 24.3154 22.9595 23.6402 23.5369 23.1534C24.1142 22.6667 24.845 22.3997 25.6002 22.3997C26.3553 22.3997 27.0862 22.6667 27.6635 23.1534C28.2409 23.6402 28.6275 24.3154 28.7552 25.0596C28.8828 25.8039 28.7433 26.5694 28.3611 27.2207C27.979 27.872 27.3789 28.3673 26.6669 28.6189V35.3816C27.3789 35.6332 27.979 36.1284 28.3611 36.7797C28.7433 37.4311 28.8828 38.1965 28.7552 38.9408C28.6275 39.6851 28.2409 40.3603 27.6635 40.847C27.0862 41.3338 26.3553 41.6007 25.6002 41.6007C24.845 41.6007 24.1142 41.3338 23.5369 40.847C22.9595 40.3603 22.5729 39.6851 22.4452 38.9408C22.3175 38.1965 22.4571 37.4311 22.8393 36.7797C23.2214 36.1284 23.8215 35.6332 24.5335 35.3816V28.6189ZM25.6002 26.6669C25.8831 26.6669 26.1544 26.5545 26.3544 26.3545C26.5545 26.1544 26.6669 25.8831 26.6669 25.6002C26.6669 25.3173 26.5545 25.046 26.3544 24.846C26.1544 24.6459 25.8831 24.5336 25.6002 24.5336C25.3173 24.5336 25.046 24.6459 24.8459 24.846C24.6459 25.046 24.5335 25.3173 24.5335 25.6002C24.5335 25.8831 24.6459 26.1544 24.8459 26.3545C25.046 26.5545 25.3173 26.6669 25.6002 26.6669ZM25.6002 39.4669C25.8831 39.4669 26.1544 39.3545 26.3544 39.1545C26.5545 38.9544 26.6669 38.6831 26.6669 38.4002C26.6669 38.1173 26.5545 37.846 26.3544 37.646C26.1544 37.4459 25.8831 37.3336 25.6002 37.3336C25.3173 37.3336 25.046 37.4459 24.8459 37.646C24.6459 37.846 24.5335 38.1173 24.5335 38.4002C24.5335 38.6831 24.6459 38.9544 24.8459 39.1545C25.046 39.3545 25.3173 39.4669 25.6002 39.4669ZM38.4002 39.4669C38.6831 39.4669 38.9544 39.3545 39.1544 39.1545C39.3545 38.9544 39.4669 38.6831 39.4669 38.4002C39.4669 38.1173 39.3545 37.846 39.1544 37.646C38.9544 37.4459 38.6831 37.3336 38.4002 37.3336C38.1173 37.3336 37.846 37.4459 37.6459 37.646C37.4459 37.846 37.3335 38.1173 37.3335 38.4002C37.3335 38.6831 37.4459 38.9544 37.6459 39.1545C37.846 39.3545 38.1173 39.4669 38.4002 39.4669Z" fill="#f49820"/>
</g>
<defs>
<clipPath id="clip0_1778_51697">
<rect width="25.6" height="25.6" fill="white" transform="translate(19.2002 19.2002)"/>
</clipPath>
</defs>
</svg>
