<svg width="64" height="64" viewBox="0 0 64 64" fill="none" xmlns="http://www.w3.org/2000/svg">
<rect width="64" height="64" rx="30" fill="#f49820"/>
<rect x="12.7998" y="18.1328" width="38.4" height="27.7333" rx="3" fill="white"/>
<g clip-path="url(#clip0_1778_51686)">
<path d="M32.0002 30.9336C33.4147 30.9336 34.7712 31.4955 35.7714 32.4957C36.7716 33.4958 37.3335 34.8524 37.3335 36.2669V42.6669H35.2002V36.2669C35.2002 35.4507 34.8884 34.6653 34.3284 34.0714C33.7685 33.4776 33.0027 33.1201 32.1879 33.0722L32.0002 33.0669C31.184 33.0668 30.3986 33.3787 29.8047 33.9387C29.2109 34.4986 28.8534 35.2643 28.8055 36.0792L28.8002 36.2669V42.6669H26.6669V36.2669C26.6669 34.8524 27.2288 33.4958 28.229 32.4957C29.2292 31.4955 30.5857 30.9336 32.0002 30.9336ZM25.0669 34.1336C25.3645 34.1336 25.6535 34.1688 25.9309 34.2338C25.7485 34.7768 25.6405 35.3419 25.6098 35.9138L25.6002 36.2669V36.3586C25.4776 36.3148 25.3501 36.2861 25.2205 36.2733L25.0669 36.2669C24.6691 36.2669 24.2856 36.4151 23.9912 36.6825C23.6968 36.9499 23.5125 37.3174 23.4743 37.7133L23.4669 37.8669V42.6669H21.3335V37.8669C21.3335 36.8767 21.7269 35.9272 22.427 35.227C23.1271 34.5269 24.0767 34.1336 25.0669 34.1336V34.1336ZM38.9335 34.1336C39.9237 34.1336 40.8733 34.5269 41.5734 35.227C42.2735 35.9272 42.6669 36.8767 42.6669 37.8669V42.6669H40.5335V37.8669C40.5335 37.4691 40.3853 37.0857 40.1179 36.7912C39.8505 36.4968 39.483 36.3125 39.0871 36.2744L38.9335 36.2669C38.7469 36.2669 38.5677 36.2989 38.4002 36.3576V36.2669C38.4002 35.5565 38.285 34.8738 38.0706 34.236C38.3469 34.1688 38.6359 34.1336 38.9335 34.1336ZM25.0669 27.7336C25.7741 27.7336 26.4524 28.0145 26.9525 28.5146C27.4526 29.0147 27.7335 29.693 27.7335 30.4002C27.7335 31.1075 27.4526 31.7857 26.9525 32.2858C26.4524 32.7859 25.7741 33.0669 25.0669 33.0669C24.3596 33.0669 23.6813 32.7859 23.1812 32.2858C22.6811 31.7857 22.4002 31.1075 22.4002 30.4002C22.4002 29.693 22.6811 29.0147 23.1812 28.5146C23.6813 28.0145 24.3596 27.7336 25.0669 27.7336V27.7336ZM38.9335 27.7336C39.6408 27.7336 40.319 28.0145 40.8191 28.5146C41.3192 29.0147 41.6002 29.693 41.6002 30.4002C41.6002 31.1075 41.3192 31.7857 40.8191 32.2858C40.319 32.7859 39.6408 33.0669 38.9335 33.0669C38.2263 33.0669 37.548 32.7859 37.0479 32.2858C36.5478 31.7857 36.2669 31.1075 36.2669 30.4002C36.2669 29.693 36.5478 29.0147 37.0479 28.5146C37.548 28.0145 38.2263 27.7336 38.9335 27.7336V27.7336ZM25.0669 29.8669C24.9254 29.8669 24.7898 29.9231 24.6897 30.0231C24.5897 30.1231 24.5335 30.2588 24.5335 30.4002C24.5335 30.5417 24.5897 30.6773 24.6897 30.7773C24.7898 30.8774 24.9254 30.9336 25.0669 30.9336C25.2083 30.9336 25.344 30.8774 25.444 30.7773C25.544 30.6773 25.6002 30.5417 25.6002 30.4002C25.6002 30.2588 25.544 30.1231 25.444 30.0231C25.344 29.9231 25.2083 29.8669 25.0669 29.8669ZM38.9335 29.8669C38.7921 29.8669 38.6564 29.9231 38.5564 30.0231C38.4564 30.1231 38.4002 30.2588 38.4002 30.4002C38.4002 30.5417 38.4564 30.6773 38.5564 30.7773C38.6564 30.8774 38.7921 30.9336 38.9335 30.9336C39.075 30.9336 39.2106 30.8774 39.3107 30.7773C39.4107 30.6773 39.4669 30.5417 39.4669 30.4002C39.4669 30.2588 39.4107 30.1231 39.3107 30.0231C39.2106 29.9231 39.075 29.8669 38.9335 29.8669ZM32.0002 21.3336C33.1318 21.3336 34.217 21.7831 35.0172 22.5832C35.8173 23.3834 36.2669 24.4686 36.2669 25.6002C36.2669 26.7318 35.8173 27.8171 35.0172 28.6172C34.217 29.4174 33.1318 29.8669 32.0002 29.8669C30.8686 29.8669 29.7834 29.4174 28.9832 28.6172C28.183 27.8171 27.7335 26.7318 27.7335 25.6002C27.7335 24.4686 28.183 23.3834 28.9832 22.5832C29.7834 21.7831 30.8686 21.3336 32.0002 21.3336V21.3336ZM32.0002 23.4669C31.4344 23.4669 30.8918 23.6917 30.4917 24.0917C30.0916 24.4918 29.8669 25.0344 29.8669 25.6002C29.8669 26.166 30.0916 26.7086 30.4917 27.1087C30.8918 27.5088 31.4344 27.7336 32.0002 27.7336C32.566 27.7336 33.1086 27.5088 33.5087 27.1087C33.9088 26.7086 34.1335 26.166 34.1335 25.6002C34.1335 25.0344 33.9088 24.4918 33.5087 24.0917C33.1086 23.6917 32.566 23.4669 32.0002 23.4669V23.4669Z" fill="#f49820"/>
</g>
<defs>
<clipPath id="clip0_1778_51686">
<rect width="25.6" height="25.6" fill="white" transform="translate(19.2002 19.2002)"/>
</clipPath>
</defs>
</svg>
