<svg width="64" height="64" viewBox="0 0 64 64" fill="none" xmlns="http://www.w3.org/2000/svg">
<rect width="64" height="64" rx="30" fill="#B31942"/>
<rect x="12.7998" y="18.1328" width="38.4" height="27.7333" rx="3" fill="white"/>
<g clip-path="url(#clip0_1778_51731)">
<path d="M23.4669 36.2668V40.5335H27.7335V42.6668H21.3335V36.2668H23.4669ZM42.6669 36.2668V42.6668H36.2669V40.5335H40.5335V36.2668H42.6669ZM27.2002 26.6668C27.2002 27.7547 27.5696 28.8103 28.2478 29.6608C28.9261 30.5113 29.873 31.1063 30.9335 31.3484V37.3335H33.0669L33.0679 31.3474C34.1281 31.1051 35.0746 30.5101 35.7527 29.6598C36.4307 28.8096 36.8 27.7543 36.8002 26.6668H38.9335C38.9338 27.9355 38.5859 29.1799 37.9278 30.2646C37.2697 31.3493 36.3266 32.2326 35.2013 32.8183L35.2002 39.4668H28.8002V32.8194C27.6745 32.2337 26.7311 31.3503 26.0728 30.2654C25.4145 29.1805 25.0665 27.9358 25.0669 26.6668H27.2002ZM32.0002 24.5335C32.7074 24.5335 33.3857 24.8144 33.8858 25.3145C34.3859 25.8146 34.6669 26.4929 34.6669 27.2002C34.6669 27.9074 34.3859 28.5857 33.8858 29.0858C33.3857 29.5859 32.7074 29.8668 32.0002 29.8668C31.2929 29.8668 30.6147 29.5859 30.1146 29.0858C29.6145 28.5857 29.3335 27.9074 29.3335 27.2002C29.3335 26.4929 29.6145 25.8146 30.1146 25.3145C30.6147 24.8144 31.2929 24.5335 32.0002 24.5335ZM27.7335 21.3335V23.4668L23.4669 23.4658V27.7335H21.3335V21.3335H27.7335ZM42.6669 21.3335V27.7335H40.5335V23.4668H36.2669V21.3335H42.6669Z" fill="#B31942"/>
</g>
<defs>
<clipPath id="clip0_1778_51731">
<rect width="25.6" height="25.6" fill="white" transform="translate(19.2002 19.2002)"/>
</clipPath>
</defs>
</svg>
